# xmcd
#
# Track frame offsets:
#	150
#	8782
#	18651
#	30207
#	39926
#	49886
#	61399
#	72737
#	86286
#	99063
#	112312
#	122272
#	133515
#	143406
#	152448
#	166645
#	175680
#	184997
#	196725
#	213448
#	230031
#	238461
#	249605
#	264600
#
# Disc length: 3672 seconds
#
# Revision: 1
# Processed by: cddbd v1.5PL3 Copyright (c) Steve Scherf et al.
# Submitted via: audiograbber 1.81.03
#
DISCID=3e0e5618
DTITLE=The Drifters - Under The Boardwalk
DYEAR=1900
DGENRE=
TTITLE0=Saturday Night At The Movies
TTITLE1=Save The Last Dance For Me
TTITLE2=Under The Boardwalk
TTITLE3=There Goes My Baby
TTITLE4=Up On The Roof
TTITLE5=Sweets For My Sweet
TTITLE6=Some Kind Of Wonderful
TTITLE7=Bells Of St.Marys
TTITLE8=Lonely Winds
TTITLE9=On Broadway
TTITLE10=Dance With Me
TTITLE11=This Magic Moment
TTITLE12=Please Stay
TTITLE13=I Count The Tears
TTITLE14=Money Honey
TTITLE15=True Love True Love
TTITLE16=When My Little Girl Is Smiling
TTITLE17=I'll Take You Home
TTITLE18=Stand By Me
TTITLE19=White Christmas
TTITLE20=The Twist
TTITLE21=I Do Beleve I'm Falling In Love
TTITLE22=Brother Louie
TTITLE23=Honey Love
EXTD=
EXTT0=
EXTT1=
EXTT2=
EXTT3=
EXTT4=
EXTT5=
EXTT6=
EXTT7=
EXTT8=
EXTT9=
EXTT10=
EXTT11=
EXTT12=
EXTT13=
EXTT14=
EXTT15=
EXTT16=
EXTT17=
EXTT18=
EXTT19=
EXTT20=
EXTT21=
EXTT22=
EXTT23=
PLAYORDER=
